<svg xmlns="http://www.w3.org/2000/svg" version="1.1" xmlns:xlink="http://www.w3.org/1999/xlink" width="1500" height="1500" viewBox="0 0 1500 1500"><rect width="1500" height="1500" x="0" y="0" id="background" stroke="transparent" fill="#9e9e9e"></rect><svg xml:space="preserve" width="1000" height="1000" data-version="2" data-id="lg_lsMEiiUyLdrroSJm2N" viewBox="0 0 571 210" x="250" y="250"><rect width="100%" height="100%" fill="transparent"></rect><rect width="212.91" height="603.96" x="-106.45" y="-301.98" fill="#cbcbcb" rx="104" ry="104" transform="rotate(-90 202.22 -90.38)scale(.9037)"></rect><rect width="212.91" height="603.96" x="-106.45" y="-301.98" fill="#262626" rx="104" ry="104" transform="matrix(0 -.9037 .9037 0 278.4 98.16)"></rect><path fill="#cbcbcb" d="M128.73 62.18h23.82l-11.17 71.25h-29.75l-5.25-26.22h-1.37l-5.13 26.22H70.13L58.96 62.18h23.82l5.36 39.79h.69l8.2-39.79h17.45l8.09 39.79h.68Z" paint-order="stroke"></path><rect width="93.59" height="71.25" x="-46.8" y="-35.63" fill="none" rx="0" ry="0" transform="translate(106.25 98.3)"></rect><path fill="#cbcbcb" d="M203.85 106.53h-22.8v8.66h27.93v18.24h-50.73V62.18h50.16l-2.85 18.24h-24.51V90h22.8Z" paint-order="stroke"></path><rect width="50.73" height="71.25" x="-25.36" y="-35.63" fill="none" rx="0" ry="0" transform="translate(184.12 98.3)"></rect><path fill="#cbcbcb" d="M218.67 133.43V62.18h36.94q10.26 0 14.65 3.99 4.39 3.99 4.39 11.63 0 7.64-2.8 11.8-2.79 4.16-7.46 5.41v.69q13.79 2.39 13.79 18.81 0 8.55-4.56 13.74-4.56 5.18-14.02 5.18Zm31.69-28.38h-8.89v11.62h8.78q4.79 0 4.79-5.81t-4.68-5.81m-1.71-27.25h-7.18v10.6h7.07q4.33 0 4.33-5.3t-4.22-5.3" paint-order="stroke"></path><rect width="59.51" height="71.25" x="-29.75" y="-35.63" fill="none" rx="0" ry="0" transform="translate(248.93 98.3)"></rect><path fill="#cbcbcb" d="m283.31 132.18 3.19-18.81q10.49 2.62 18.87 2.62t13.51-.68v-5.7l-10.26-.92q-13.91-1.25-19.1-6.66-5.18-5.42-5.18-16.02 0-14.59 6.32-20.07 6.33-5.47 21.49-5.47 15.16 0 27.36 2.85l-2.85 18.24q-10.6-1.71-16.98-1.71-6.39 0-10.83.57v5.59l8.2.8q14.94 1.48 20.64 7.12 5.7 5.64 5.7 15.68 0 7.18-1.94 12.14-1.94 4.96-4.62 7.52-2.68 2.57-7.58 3.93-4.9 1.37-8.6 1.66-3.71.28-9.87.28-14.82 0-27.47-2.96" paint-order="stroke"></path><rect width="60.08" height="74.67" x="-30.04" y="-37.34" fill="none" rx="0" ry="0" transform="translate(313.85 98.3)"></rect><path fill="#cbcbcb" d="M351.94 133.43V62.18h22.8v71.25Z" paint-order="stroke"></path><rect width="22.8" height="71.25" x="-11.4" y="-35.63" fill="none" rx="0" ry="0" transform="translate(363.84 98.3)"></rect><path fill="#cbcbcb" d="M436.87 80.42h-16.53v53.01h-22.8V80.42h-16.53V62.18h55.86Z" paint-order="stroke"></path><rect width="55.86" height="71.25" x="-27.93" y="-35.63" fill="none" rx="0" ry="0" transform="translate(409.44 98.3)"></rect><path fill="#cbcbcb" d="M488.74 106.53h-22.8v8.66h27.93v18.24h-50.73V62.18h50.16l-2.85 18.24h-24.51V90h22.8Z" paint-order="stroke"></path><rect width="50.73" height="71.25" x="-25.36" y="-35.63" fill="none" rx="0" ry="0" transform="translate(469 98.3)"></rect></svg></svg>